# AST/ASF file generated using VICON BodyLanguage
# -----------------------------------------------
:version 1.10
:name VICON
:units
  mass 1.0
  length 0.45
  angle deg
:documentation
   .ast/.asf automatically generated from VICON data using
   VICON BodyBuilder and BodyLanguage model FoxedUp or BRILLIANT.MOD
:root
   order TX TY TZ RX RY RZ
   axis XYZ
   position 0 0 0  
   orientation 0 0 0 
:bonedata
  begin
     id 1 
     name lhipjoint
     direction 0.630082 -0.636569 0.44472 
     length 2.82754 
     axis 0 0 0  XYZ
  end
  begin
     id 2 
     name lfemur
     direction 0.34202 -0.939693 0  
     length 7.26371  
     axis 0 0 20  XYZ
    dof rx ry rz
    limits (-160.0 20.0)
           (-70.0 70.0)
           (-60.0 70.0)
  end
  begin
     id 3 
     name ltibia
     direction 0.34202 -0.939693 0   
     length 7.88616   
     axis 0 0 20   XYZ
    dof rx
    limits (-10.0 170.0)
  end
  begin
     id 4 
     name lfoot
     direction 0.0603448 -0.165796 0.984312   
     length 1.77861   
     axis -90 7.62852e-016 20   XYZ
    dof rx rz
    limits (-45.0 90.0)
           (-70.0 20.0)
  end
  begin
     id 5 
     name ltoes
     direction 1.53577e-011 -4.21876e-011 1   
     length 0.902235   
     axis -90 7.62852e-016 20   XYZ
    dof rx
    limits (-90.0 20.0)
  end
  begin
     id 6 
     name rhipjoint
     direction -0.656778 -0.61817 0.431866   
     length 2.9117  
     axis 0 0 0  XYZ 
  end
  begin
     id 7 
     name rfemur
     direction -0.34202 -0.939693 0   
     length 6.81603   
     axis 0 0 -20   XYZ
    dof rx ry rz
    limits (-160.0 20.0)
           (-70.0 70.0)
           (-70.0 60.0)
  end
  begin
     id 8 
     name rtibia
     direction -0.34202 -0.939693 0   
     length 8.05997   
     axis 0 0 -20   XYZ
    dof rx
    limits (-10.0 170.0)
 end
 begin
     id 9 
     name rfoot
     direction -0.0862404 -0.236944 0.967688   
     length 1.84899  
     axis -90 -7.62852e-016 -20   XYZ
    dof rx rz
    limits (-45.0 90.0)
           (-20.0 70.0)
  end
  begin
     id 10 
     name rtoes
     direction -1.53561e-011 -4.21798e-011 1   
     length 0.931579   
     axis -90 -7.62852e-016 -20   XYZ
    dof rx
    limits (-90.0 20.0)
  end
  begin
     id 11 
     name lowerback
     direction -0.0110203 0.991769 -0.127564   
     length 2.05686   
     axis 0 0 0   XYZ
    dof rx ry rz
    limits (-20.0 45.0)
           (-30.0 30.0)
           (-30.0 30.0)
  end
  begin
     id 12 
     name upperback
     direction 0.0109719 0.99993 -0.00432479   
     length 2.06234   
     axis 0 0 0   XYZ
    dof rx ry rz
    limits (-20.0 45.0)
           (-30.0 30.0)
           (-30.0 30.0)
  end
  begin
     id 13 
     name thorax
     direction 0.0173308 0.998351 0.0547306   
     length 2.09856   
     axis 0 0 0   XYZ
    dof rx ry rz
    limits (-20.0 45.0)
           (-30.0 30.0)
           (-30.0 30.0)
  end
  begin
     id 14 
     name lowerneck
     direction -0.0311736 0.989033 0.144366   
     length 1.98151   
     axis 0 0 0   XYZ
    dof rx ry rz
    limits (-20.0 45.0)
           (-30.0 30.0)
           (-30.0 30.0)
  end
  begin
     id 15 
     name upperneck
     direction 0.0421057 0.975772 -0.214698   
     length 2.01457   
     axis 0 0 0   XYZ
    dof rx ry rz
    limits (-20.0 45.0)
           (-30.0 30.0)
           (-30.0 30.0)
  end
  begin
     id 16
     name head
     direction 0.0136911 0.995958 -0.0887718  
     length 2.03562  
     axis 0 0 0   XYZ
    dof rx ry rz
    limits (-20.0 45.0)
           (-30.0 30.0)
           (-30.0 30.0)
  end
  begin
     id 17 
     name lclavicle
     direction 0.915335 0.396201 0.0720134  
     length 4.16217  
     axis 0 0 0   XYZ
    dof ry rz
    limits (-20.0 10.0)
           (0.0 20.0)
  end
  begin
     id 18 
     name lhumerus
     direction 1 -4.48965e-011 6.383e-018   
     length 4.93042   
     axis -180 -30 -90   XYZ
    dof rx ry rz
    limits (-60.0 90.0)
           (-90.0 90.0)
           (-90.0 90.0)
  end
  begin
     id 19
     name lradius
     direction 1 -4.48972e-011 8.8689e-027   
     length 3.68177   
     axis -180 -30 -90   XYZ
    dof rx
    limits (-10.0 170.0)
  end
  begin
     id 20
     name lwrist
     direction 1 -4.48953e-011 1.17971e-026   
     length 1.84089   
     axis -7.69454e-015 90 90   XYZ
    dof ry
    limits (-180.0 0.0)
 end
  begin
     id 21 
     name lhand
     direction 1 -4.49027e-011 2.35802e-026   
     length 0.721479   
     axis -1.50533e-014 90 90   XYZ
    dof rx rz
    limits (-90.0 90.0)
           (-45.0 45.0)
  end
  begin
     id 22 
     name lfingers
     direction 1 -4.48915e-011 4.72027e-026   
     length 0.581675   
     axis -3.01059e-014 90 90   XYZ
    dof rx
    limits (0.0 90.0)
  end
  begin
     id 23
     name lthumb
     direction 0.707107 -6.34948e-011 0.707107   
     length 0.835172   
     axis -90 45 -5.12164e-014   XYZ
    dof rx rz
    limits (-45.0 45.0)
           (-45.0 45.0)
  end
  begin
     id 24 
     name rclavicle
     direction -0.882781 0.469197 0.0234974   
     length 3.95647  
     axis 0 0 0   XYZ 
    dof ry rz
    limits (-10.0 20.0)
           (-20.0 0.0)
  end
  begin
     id 25 
     name rhumerus
     direction -1 -4.48965e-011 -1.54906e-018  
     length 5.07905   
     axis -180 30 90   XYZ
    dof rx ry rz
    limits (-90.0 60.0)
           (-90.0 90.0)
           (-90.0 90.0)
  end
  begin
     id 26 
     name rradius
     direction -1 -4.48972e-011 5.47489e-027   
     length 3.54394   
     axis -180 30 90   XYZ
    dof rx
    limits (-10.0 170.0)
  end
  begin
     id 27 
     name rwrist
     direction -1 -4.48955e-011 1.17969e-026   
     length 1.77197   
     axis -7.69454e-015 -90 -90   XYZ
    dof ry
    limits (-180.0 0.0)
  end
  begin
     id 28
     name rhand
     direction -1 -4.48982e-011 2.35888e-026   
     length 0.681156   
     axis -1.50533e-014 -90 -90   XYZ
    dof rx rz
    limits (-90.0 90.0)
           (-45.0 45.0)
  end
  begin
     id 29
     name rfingers
     direction -1 -4.48955e-011 4.71877e-026   
     length 0.549165   
     axis -3.01059e-014 -90 -90   XYZ
    dof rx
    limits (0.0 90.0)
  end
  begin
     id 30
     name rthumb
     direction -0.707107 -6.3491e-011 0.707107   
     length 0.788495   
     axis -90 -45 5.12164e-014   XYZ
    dof rx rz
    limits (-45.0 45.0)
           (-45.0 45.0)
  end
:hierarchy
  begin
    root lhipjoint rhipjoint lowerback
    lhipjoint lfemur
    lfemur ltibia
    ltibia lfoot
    lfoot ltoes
    rhipjoint rfemur
    rfemur rtibia
    rtibia rfoot
    rfoot rtoes
    lowerback upperback
    upperback thorax
    thorax lowerneck lclavicle rclavicle
    lowerneck upperneck
    upperneck head
    lclavicle lhumerus
    lhumerus lradius
    lradius lwrist
    lwrist lhand lthumb
    lhand lfingers
    rclavicle rhumerus
    rhumerus rradius
    rradius rwrist
    rwrist rhand rthumb
    rhand rfingers
  end

#!OML:ASF H:\Bending\Project 1\Capture day 1\Session 1\Subject.ASF
:FULLY-SPECIFIED
:DEGREES
97
root -12.2493 14.1456 -16.7398 -235.008 88.5792 -243.336
lowerback 44.3338 -1.62226 0.877145
upperback 5.58297 -0.473464 0.708545
thorax -14.6271 0.161332 0.453586
lowerneck -23.2299 -4.91847 -6.96527
upperneck 12.3966 -5.38287 5.22492
head 7.9311 -2.36731 2.1491
rclavicle -1.64991e-014 -2.40529e-014
rhumerus 15.546 5.04436 -89.6033
rradius 26.3515
rwrist 16.3022
rhand -23.4393 -22.416
rfingers 7.12502
rthumb 3.01887 -52.3744
lclavicle -1.64991e-014 -2.40529e-014
lhumerus 15.8447 5.72776 104.334
lradius 28.0027
lwrist 24.8383
lhand -39.7243 6.77881
lfingers 7.12502
lthumb -12.702 36.3725
rfemur -59.7521 -33.1572 15.7332
rtibia 88.7545
rfoot -29.9853 6.8378
rtoes -0.906251
lfemur -61.0433 24.3861 -19.5795
ltibia 87.9585
lfoot -19.7507 -26.854
ltoes 11.4058
98
root -12.2303 13.8844 -16.7281 -227.113 88.3721 -234.583
lowerback 45.2874 -1.76327 0.925247
upperback 5.68049 -0.549083 0.728591
thorax -14.7917 0.148659 0.487273
lowerneck -23.2124 -4.90214 -6.91944
upperneck 12.0882 -5.35675 5.1906
head 7.82026 -2.35603 2.13456
rclavicle 0 -1.45113e-014
rhumerus 16.1686 3.87343 -90.54
rradius 25.7908
rwrist 16.829
rhand -24.4639 -22.8621
rfingers 7.12502
rthumb 2.02937 -52.8322
lclavicle 0 -1.45113e-014
lhumerus 16.589 6.26961 105.138
lradius 27.3733
lwrist 23.1744
lhand -40.4379 6.65111
lfingers 7.12502
lthumb -13.3899 36.2008
rfemur -60.6644 -34.6149 15.1076
rtibia 92.0523
rfoot -29.8973 7.52682
rtoes -2.02763
lfemur -61.877 25.1668 -19.2817
ltibia 90.8304
lfoot -18.7097 -28.1924
ltoes 14.5322
99
root -12.208 13.6194 -16.7166 -221.681 88.1583 -228.266
lowerback 46.1833 -1.88776 0.967259
upperback 5.75981 -0.61041 0.741672
thorax -14.9522 0.141395 0.510266
lowerneck -23.174 -4.87609 -6.86186
upperneck 11.8418 -5.33115 5.18709
head 7.72799 -2.34165 2.1287
rclavicle 8.54774e-015 2.78299e-014
rhumerus 16.6767 2.46099 -91.5996
rradius 25.1554
rwrist 17.605
rhand -25.309 -23.0996
rfingers 7.12502
rthumb 1.21317 -53.0758
lclavicle 8.54774e-015 2.78299e-014
lhumerus 17.2366 6.82243 105.88
lradius 26.7293
lwrist 21.5423
lhand -40.8974 6.54557
lfingers 7.12502
lthumb -13.8328 36.0656
rfemur -61.5892 -36.2791 14.4232
rtibia 95.3707
rfoot -29.6116 8.45576
rtoes -2.8102
lfemur -62.6813 26.0393 -18.9153
ltibia 93.7005
lfoot -17.4637 -29.5337
ltoes 17.2921
100
root -12.1813 13.352 -16.7056 -217.238 87.9429 -222.927
lowerback 47.0057 -2.01004 1.03223
upperback 5.81615 -0.662487 0.748887
thorax -15.1122 0.135506 0.511038
lowerneck -23.1293 -4.85311 -6.81426
upperneck 11.6743 -5.32003 5.23674
head 7.66431 -2.32949 2.14027
rclavicle -1.59028e-015 4.85035e-014
rhumerus 17.0742 0.752287 -92.7907
rradius 24.4685
rwrist 18.5574
rhand -25.8286 -22.967
rfingers 7.12502
rthumb 0.711259 -52.9456
lclavicle -1.59028e-015 4.85035e-014
lhumerus 17.7627 7.30352 106.519
lradius 26.1094
lwrist 20.2057
lhand -41.079 6.49985
lfingers 7.12502
lthumb -14.0077 36.0079
rfemur -62.4635 -38.1841 13.667
rtibia 98.6407
rfoot -29.2084 9.70953
rtoes -2.9837
lfemur -63.4525 26.9837 -18.4481
ltibia 96.557
lfoot -15.9365 -30.9594
ltoes 20.25
101
root -12.1502 13.0839 -16.6945 -213.121 87.7319 -217.912
lowerback 47.7498 -2.13788 1.13053
upperback 5.84963 -0.70992 0.750623
thorax -15.2722 0.128265 0.486896
lowerneck -23.0811 -4.83723 -6.79169
upperneck 11.5637 -5.32575 5.35594
head 7.62324 -2.31971 2.17676
rclavicle 2.92213e-014 3.18055e-014
rhumerus 17.3832 -1.24361 -94.1082
rradius 23.752
rwrist 19.5264
rhand -25.9571 -22.4732
rfingers 7.12502
rthumb 0.587208 -52.4521
lclavicle 2.92213e-014 3.18055e-014
lhumerus 18.1426 7.62586 107.004
lradius 25.5577
lwrist 19.3757
lhand -41.0158 6.54143
lfingers 7.12502
lthumb -13.9469 36.0537
rfemur -63.2109 -40.3145 12.8331
rtibia 101.793
rfoot -28.7979 11.2437
rtoes -2.57037
lfemur -64.1883 28 -17.8501
ltibia 99.3916
lfoot -14.0471 -32.4855
ltoes 23.7572
102
root -12.115 12.8166 -16.6825 -209.239 87.5465 -213.142
lowerback 49.3014 -2.2895 1.28064
upperback 4.81412 -0.746931 0.726319
thorax -15.2661 0.117465 0.433841
lowerneck -23.023 -4.82345 -6.79736
upperneck 11.4606 -5.33949 5.54952
head 7.58694 -2.30784 2.24168
rclavicle -2.14687e-014 2.78299e-014
rhumerus 17.6327 -3.43175 -95.5179
rradius 23.0374
rwrist 20.2949
rhand -25.7125 -21.8456
rfingers 7.12502
rthumb 0.823393 -51.8238
lclavicle -2.14687e-014 2.78299e-014
lhumerus 18.3705 7.7627 107.308
lradius 25.1035
lwrist 19.0962
lhand -40.8061 6.66733
lfingers 7.12502
lthumb -13.7447 36.1934
rfemur -63.7865 -42.6035 11.938
rtibia 104.781
rfoot -28.4977 12.9155
rtoes -1.79079
lfemur -64.8954 29.1211 -17.1113
ltibia 102.197
lfoot -11.8306 -34.0316
ltoes 27.6139
103
root -12.077 12.5516 -16.6685 -205.677 87.424 -208.722
lowerback 49.9218 -2.39385 1.38577
upperback 4.77998 -0.772154 0.71215
thorax -15.4079 0.115022 0.382448
lowerneck -22.9491 -4.80248 -6.82277
upperneck 11.3146 -5.34665 5.80428
head 7.53609 -2.288 2.33133
rclavicle 2.18663e-015 -7.55382e-015
rhumerus 17.8413 -5.63362 -96.9449
rradius 22.373
rwrist 20.6496
rhand -25.1824 -21.4402
rfingers 7.12502
rthumb 1.3354 -51.4158
lclavicle 2.18663e-015 -7.55382e-015
lhumerus 18.4719 7.78858 107.455
lradius 24.7448
lwrist 19.1888
lhand -40.5912 6.83352
lfingers 7.12502
lthumb -13.5376 36.3735
rfemur -64.2018 -44.9568 11.025
rtibia 107.594
rfoot -28.4011 14.5634
rtoes -0.894935
lfemur -65.5863 30.4057 -16.2489
ltibia 104.959
lfoot -9.48381 -35.4777
ltoes 31.2548
